<svg xmlns="http://www.w3.org/2000/svg" viewBox="0 0 60 60">
  <defs>
    <style>
      .cls-1 {
        fill: #4285f4;
      }
    </style>
  </defs>
  <title>Asset 2</title>
  <g id="Layer_2" data-name="Layer 2">
    <g id="Layer_1-2" data-name="Layer 1">
      <g>
        <path class="cls-1" d="M36.49,24.46a1.77,1.77,0,0,0,0,3.54h0a1.77,1.77,0,0,0,0-3.54Z"/>
        <path class="cls-1" d="M30,24.46a1.77,1.77,0,1,0,1.77,1.77A1.77,1.77,0,0,0,30,24.46Z"/>
        <path class="cls-1" d="M30,0A30,30,0,1,0,60,30,30,30,0,0,0,30,0ZM27.5,39.12A14.06,14.06,0,0,1,25.67,39c-1.78,1.15-4.14,2.51-5.48,2.66a.41.41,0,0,1-.18,0,.36.36,0,0,1-.14-.5,6.24,6.24,0,0,0,.66-4,8.73,8.73,0,0,1-4.21-7.25,9,9,0,0,1,4.85-7.64l-.17.31a9.33,9.33,0,0,0,0,8.57,10.83,10.83,0,0,0,2.78,3.42,13.87,13.87,0,0,0,8.84,3h1.21A12.75,12.75,0,0,1,27.5,39.12Zm13.41-5a5.76,5.76,0,0,0,.65,3.21,1,1,0,0,1,.14.57A1.11,1.11,0,0,1,40.56,39h-.12c-1.17-.08-3-1-5.62-2.6a13.21,13.21,0,0,1-1.66.1c-6.64,0-12-4.5-12-10s5.36-10,12-10,12,4.47,12,10A9.4,9.4,0,0,1,40.91,34.14Z"/>
      </g>
    </g>
  </g>
</svg>
